<svg xmlns="http://www.w3.org/2000/svg" width="601" height="422.717" viewBox="0 0 601 422.717">
  <g id="Group_8" data-name="Group 8" transform="translate(-1179 -302)">
    <rect id="Rectangle_5" data-name="Rectangle 5" width="95" height="26" transform="translate(1433 674)" fill="#7e7e7e"/>
    <rect id="Rectangle_3" data-name="Rectangle 3" width="601" height="374" rx="19" transform="translate(1179 302)" fill="#2a2828"/>
    <rect id="Rectangle_4" data-name="Rectangle 4" width="549" height="315" transform="translate(1205 323)" fill="#fff"/>
    <path id="Path_1" data-name="Path 1" d="M1636.146,754,1592.3,772.717h175.36L1728.553,754Z" transform="translate(-202 -53)" fill="#b1b1b1" stroke="#b1b1b1" stroke-linecap="round" stroke-linejoin="round" stroke-width="10"/>
    <rect id="Rectangle_7" data-name="Rectangle 7" width="549" height="315" transform="translate(1205 323)" fill="#f5f5f5"/>
    <rect id="Rectangle_8" data-name="Rectangle 8" width="107" height="315" transform="translate(1205 323)" fill="#dfdfdf"/>
    <path id="Rectangle_6" data-name="Rectangle 6" d="M5,0H544a5,5,0,0,1,5,5V15a0,0,0,0,1,0,0H0a0,0,0,0,1,0,0V5A5,5,0,0,1,5,0Z" transform="translate(1205 323)" fill="#ece8e8"/>
    <circle id="Ellipse_1" data-name="Ellipse 1" cx="3" cy="3" r="3" transform="translate(1212 328)" fill="#eb5347"/>
    <circle id="Ellipse_2" data-name="Ellipse 2" cx="3" cy="3" r="3" transform="translate(1230 328)" fill="#59c725"/>
    <circle id="Ellipse_3" data-name="Ellipse 3" cx="3" cy="3" r="3" transform="translate(1221 328)" fill="#f3ba28"/>
    <rect id="Rectangle_9" data-name="Rectangle 9" width="135" height="69" rx="6" transform="translate(1331 362)" fill="#d8d8d8"/>
    <rect id="Rectangle_10" data-name="Rectangle 10" width="135" height="69" rx="6" transform="translate(1592 455)" fill="#d8d8d8"/>
    <rect id="Rectangle_11" data-name="Rectangle 11" width="135" height="69" rx="6" transform="translate(1331 544)" fill="#d8d8d8"/>
    <g id="Group_1" data-name="Group 1" transform="translate(34 30)">
      <rect id="Rectangle_12" data-name="Rectangle 12" width="233" height="7" rx="3.5" transform="translate(1460 332)" fill="#d8d8d8"/>
      <rect id="Rectangle_13" data-name="Rectangle 13" width="233" height="7" rx="3.5" transform="translate(1460 394)" fill="#d8d8d8"/>
      <rect id="Rectangle_14" data-name="Rectangle 14" width="233" height="7" rx="3.5" transform="translate(1460 348)" fill="#d8d8d8"/>
      <rect id="Rectangle_15" data-name="Rectangle 15" width="233" height="7" rx="3.5" transform="translate(1460 363)" fill="#d8d8d8"/>
      <rect id="Rectangle_16" data-name="Rectangle 16" width="233" height="7" rx="3.5" transform="translate(1460 379)" fill="#d8d8d8"/>
    </g>
    <g id="Group_3" data-name="Group 3" transform="translate(34 30)">
      <g id="Group_2" data-name="Group 2" transform="translate(-163 93)">
        <rect id="Rectangle_12-2" data-name="Rectangle 12" width="233" height="7" rx="3.5" transform="translate(1460 332)" fill="#d8d8d8"/>
        <rect id="Rectangle_13-2" data-name="Rectangle 13" width="233" height="7" rx="3.5" transform="translate(1460 394)" fill="#d8d8d8"/>
        <rect id="Rectangle_14-2" data-name="Rectangle 14" width="233" height="7" rx="3.5" transform="translate(1460 348)" fill="#d8d8d8"/>
        <rect id="Rectangle_15-2" data-name="Rectangle 15" width="233" height="7" rx="3.5" transform="translate(1460 363)" fill="#d8d8d8"/>
        <rect id="Rectangle_16-2" data-name="Rectangle 16" width="233" height="7" rx="3.5" transform="translate(1460 379)" fill="#d8d8d8"/>
      </g>
    </g>
    <g id="Group_4" data-name="Group 4" transform="translate(194 119)">
      <g id="Group_2-2" data-name="Group 2" transform="translate(-163 93)">
        <rect id="Rectangle_12-3" data-name="Rectangle 12" width="233" height="7" rx="3.5" transform="translate(1460 332)" fill="#d8d8d8"/>
        <rect id="Rectangle_13-3" data-name="Rectangle 13" width="233" height="7" rx="3.5" transform="translate(1460 394)" fill="#d8d8d8"/>
        <rect id="Rectangle_14-3" data-name="Rectangle 14" width="233" height="7" rx="3.5" transform="translate(1460 348)" fill="#d8d8d8"/>
        <rect id="Rectangle_15-3" data-name="Rectangle 15" width="233" height="7" rx="3.5" transform="translate(1460 363)" fill="#d8d8d8"/>
        <rect id="Rectangle_16-3" data-name="Rectangle 16" width="233" height="7" rx="3.5" transform="translate(1460 379)" fill="#d8d8d8"/>
      </g>
    </g>
    <g id="Group_5" data-name="Group 5" transform="translate(34 30)">
      <circle id="Ellipse_4" data-name="Ellipse 4" cx="10.5" cy="10.5" r="10.5" transform="translate(1183 341)" fill="#b1b1b1"/>
      <rect id="Rectangle_17" data-name="Rectangle 17" width="52" height="10" rx="5" transform="translate(1214 347)" fill="#b1b1b1"/>
    </g>
    <g id="Group_6" data-name="Group 6">
      <rect id="Rectangle_18" data-name="Rectangle 18" width="89" height="5" rx="2.5" transform="translate(1214 421)" fill="#b1b1b1"/>
      <rect id="Rectangle_19" data-name="Rectangle 19" width="89" height="5" rx="2.5" transform="translate(1214 451)" fill="#b1b1b1"/>
      <rect id="Rectangle_20" data-name="Rectangle 20" width="89" height="5" rx="2.5" transform="translate(1214 436)" fill="#b1b1b1"/>
    </g>
    <g id="Group_7" data-name="Group 7">
      <rect id="Rectangle_18-2" data-name="Rectangle 18" width="81" height="5" rx="2.5" transform="translate(1214 421)" fill="#b1b1b1"/>
      <rect id="Rectangle_19-2" data-name="Rectangle 19" width="81" height="5" rx="2.5" transform="translate(1214 451)" fill="#b1b1b1"/>
      <rect id="Rectangle_20-2" data-name="Rectangle 20" width="81" height="5" rx="2.5" transform="translate(1214 436)" fill="#b1b1b1"/>
    </g>
    <rect id="Rectangle_18-3" data-name="Rectangle 18" width="81" height="5" rx="2.5" transform="translate(1215 493)" fill="#b1b1b1"/>
    <rect id="Rectangle_19-3" data-name="Rectangle 19" width="58" height="5" rx="2.5" transform="translate(1215 523)" fill="#b1b1b1"/>
    <rect id="Rectangle_21" data-name="Rectangle 21" width="58" height="5" rx="2.5" transform="translate(1215 538)" fill="#b1b1b1"/>
    <rect id="Rectangle_22" data-name="Rectangle 22" width="58" height="5" rx="2.5" transform="translate(1215 553)" fill="#b1b1b1"/>
    <rect id="Rectangle_23" data-name="Rectangle 23" width="81" height="5" rx="2.5" transform="translate(1217 587)" fill="#b1b1b1"/>
    <rect id="Rectangle_20-3" data-name="Rectangle 20" width="58" height="5" rx="2.5" transform="translate(1215 508)" fill="#b1b1b1"/>
  </g>
</svg>
